# xmcd
#
# Track frame offsets:
#	150
#	19030
#	35385
#	49104
#	67681
#	83067
#	99018
#	115947
#	135521
#	156147
#	174720
#	194013
#
# Disc length: 2928 seconds
#
# Revision: 1
# Processed by: cddbd v1.5.2PL0 Copyright (c) Steve Scherf et al.
# Submitted via: audiograbber 1.83.01
#
DISCID=8f0b6e0c
DTITLE=Sara Milonovich - Daisycutter
DYEAR=2009
DGENRE=Acoustic
TTITLE0=Country Life
TTITLE1=Under the Weather
TTITLE2=Fiona's Breakdown
TTITLE3=Northern Cross
TTITLE4=Pleasent Valley Sunday
TTITLE5=Insanity Street
TTITLE6=Last Dance
TTITLE7=No Sweet Helene
TTITLE8=The First Snowball
TTITLE9=Willie Taylor
TTITLE10=Here Comes the Flood
TTITLE11=The Lake Arthur Stomp
EXTD=
EXTT0=
EXTT1=
EXTT2=
EXTT3=
EXTT4=
EXTT5=
EXTT6=
EXTT7=
EXTT8=
EXTT9=
EXTT10=
EXTT11=
PLAYORDER=
